<mxfile host="app.diagrams.net" agent="Mozilla/5.0 (Macintosh; Intel Mac OS X 10.15; rv:137.0) Gecko/20100101 Firefox/137.0" version="26.2.13">
  <diagram name="Page-1" id="p4Ugs_zfMYjRPC_lwvaQ">
    <mxGraphModel dx="661" dy="350" grid="1" gridSize="10" guides="1" tooltips="1" connect="1" arrows="1" fold="1" page="1" pageScale="1" pageWidth="850" pageHeight="1100" math="0" shadow="0">
      <root>
        <mxCell id="0" />
        <mxCell id="1" parent="0" />
        <mxCell id="ly0mxCOHdiCgpt_6Nqjt-5" value="" style="rounded=1;whiteSpace=wrap;html=1;" vertex="1" parent="1">
          <mxGeometry x="540" y="360" width="120" height="60" as="geometry" />
        </mxCell>
        <mxCell id="ly0mxCOHdiCgpt_6Nqjt-1" value="Higher Order Component" style="swimlane;whiteSpace=wrap;html=1;" vertex="1" parent="1">
          <mxGeometry x="330" y="280" width="200" height="200" as="geometry" />
        </mxCell>
        <mxCell id="ly0mxCOHdiCgpt_6Nqjt-4" value="Fetch Data" style="text;html=1;align=center;verticalAlign=middle;whiteSpace=wrap;rounded=0;" vertex="1" parent="ly0mxCOHdiCgpt_6Nqjt-1">
          <mxGeometry x="65" y="30" width="60" height="30" as="geometry" />
        </mxCell>
        <mxCell id="ly0mxCOHdiCgpt_6Nqjt-3" value="" style="shape=flexArrow;endArrow=classic;startArrow=classic;html=1;rounded=0;" edge="1" parent="ly0mxCOHdiCgpt_6Nqjt-1">
          <mxGeometry width="100" height="100" relative="1" as="geometry">
            <mxPoint x="35" y="70" as="sourcePoint" />
            <mxPoint x="155" y="70" as="targetPoint" />
          </mxGeometry>
        </mxCell>
        <mxCell id="ly0mxCOHdiCgpt_6Nqjt-6" value="" style="shape=flexArrow;endArrow=classic;html=1;rounded=0;entryX=0.167;entryY=0.833;entryDx=0;entryDy=0;entryPerimeter=0;" edge="1" parent="ly0mxCOHdiCgpt_6Nqjt-1">
          <mxGeometry width="50" height="50" relative="1" as="geometry">
            <mxPoint x="50" y="130" as="sourcePoint" />
            <mxPoint x="210.03999999999996" y="129.98000000000002" as="targetPoint" />
          </mxGeometry>
        </mxCell>
        <mxCell id="ly0mxCOHdiCgpt_6Nqjt-7" value="Set State" style="text;html=1;align=center;verticalAlign=middle;whiteSpace=wrap;rounded=0;" vertex="1" parent="ly0mxCOHdiCgpt_6Nqjt-1">
          <mxGeometry x="70" y="100" width="60" height="30" as="geometry" />
        </mxCell>
        <mxCell id="ly0mxCOHdiCgpt_6Nqjt-2" value="Render Component" style="swimlane;whiteSpace=wrap;html=1;" vertex="1" parent="1">
          <mxGeometry x="680" y="320" width="120" height="150" as="geometry" />
        </mxCell>
        <mxCell id="ly0mxCOHdiCgpt_6Nqjt-9" value="RENDER" style="shape=umlActor;verticalLabelPosition=bottom;verticalAlign=top;html=1;outlineConnect=0;" vertex="1" parent="ly0mxCOHdiCgpt_6Nqjt-2">
          <mxGeometry x="45" y="60" width="30" height="60" as="geometry" />
        </mxCell>
        <mxCell id="ly0mxCOHdiCgpt_6Nqjt-8" value="DATA STORE" style="text;html=1;align=center;verticalAlign=middle;whiteSpace=wrap;rounded=0;" vertex="1" parent="1">
          <mxGeometry x="570" y="375" width="60" height="30" as="geometry" />
        </mxCell>
        <mxCell id="ly0mxCOHdiCgpt_6Nqjt-10" value="" style="shape=flexArrow;endArrow=classic;html=1;rounded=0;" edge="1" parent="1">
          <mxGeometry width="50" height="50" relative="1" as="geometry">
            <mxPoint x="650" y="400" as="sourcePoint" />
            <mxPoint x="710" y="400" as="targetPoint" />
          </mxGeometry>
        </mxCell>
      </root>
    </mxGraphModel>
  </diagram>
</mxfile>
